<svg xmlns="http://www.w3.org/2000/svg" id="Close" width="24" height="24" viewBox="0 0 24 24">
    <defs>
        <style>
            .cls-1{fill:rgba(255,113,101,.4)}.cls-2{fill:#ff7165}
        </style>
    </defs>
    <path id="Path_27" d="M.629 98.824a2.145 2.145 0 0 0 0 3.033l1.516 1.516a2.145 2.145 0 0 0 3.033 0L12 96.55 7.452 92zm22.744-16.679l-1.516-1.516a2.145 2.145 0 0 0-3.033 0L12 87.452 16.55 92l6.823-6.823a2.145 2.145 0 0 0 0-3.032z" class="cls-1" data-name="Path 27" transform="translate(-.001 -80.001)"/>
    <path id="Path_28" d="M23.373 98.824a2.145 2.145 0 0 1 0 3.033l-1.516 1.516a2.145 2.145 0 0 1-3.033 0l-18.2-18.2a2.145 2.145 0 0 1 0-3.033l1.516-1.516a2.145 2.145 0 0 1 3.033 0z" class="cls-2" data-name="Path 28" transform="translate(-.001 -80.001)"/>
</svg>
